{"title":"Master Of None S01 Season 1 720p 5.1Ch WebRip ReEnc-DeeJayAhmed","uid":13217602,"size":2165163772,"categoryP":"video","categoryS":"hd___tv_shows","magnet":"?xt=urn:btih:99e4c72577dc02728dd3533e14abdfe2f033f6da&amp;dn=Master+Of+None+S01+Season+1+720p+5.1Ch+WebRip+ReEnc-DeeJayAhmed&amp;tr=udp%3A%2F%2Ftracker.leechers-paradise.org%3A6969&amp;tr=udp%3A%2F%2Fzer0day.ch%3A1337&amp;tr=udp%3A%2F%2Fopen.demonii.com%3A1337&amp;tr=udp%3A%2F%2Ftracker.coppersurfer.tk%3A6969&amp;tr=udp%3A%2F%2Fexodus.desync.com%3A6969","seeders":12,"leechers":6,"uploader":"DeeJayPirate","files":12,"time":1452726441,"description":"DeeJayAhmed  \nhttps://www.DeeJayAhmed.com\r\r\nKeep Seeding!!=)) \r\nDo Comment On The A/V Quality Considering The Size Of The File..!\r\n\r\nVideo \r\nID : 1 \r\nFormat : AVC \r\nFormat/Info : Advanced Video Codec \r\nFormat profile :    \r\nFormat settings, CABAC : Yes \r\nFormat settings, ReFrames : 12 frames \r\nCodec ID : V_MPEG4/ISO/AVC \r\nDuration : 26mn 54s \r\nBit rate : 896 Kbps \r\nNominal bit rate : 848 Kbps \r\nWidth : 1 280 pixels \r\nHeight : 534 pixels \r\nDisplay aspect ratio : 2.40:1 \r\nFrame rate mode : Constant \r\nFrame rate : 23.976 (24000/1001) fps \r\nColor space : YUV \r\nChroma subsampling : 4:2:0 \r\nBit depth : 8 bits \r\nScan type : Progressive \r\nBits/(Pixel*Frame) : 0.055 \r\nStream size : 172 MiB (82%) \r\nDefault : Yes \r\nForced : No \r\n\r\nAudio \r\nID : 2 \r\nFormat : AAC \r\nFormat/Info : Advanced Audio Codec \r\nFormat profile : HE-AAC / LC \r\nCodec ID : A_AAC \r\nDuration : 26mn 54s \r\nBit rate : 188 Kbps \r\nChannel(s) : 6 channels \r\nChannel positions : Front: L C R, Side: L R, LFE \r\nSampling rate : 48.0 KHz / 24.0 KHz \r\nFrame rate : 23.438 fps (1024 spf) \r\nCompression mode : Lossy \r\nDelay relative to video : 31ms \r\nStream size : 36.1 MiB (17%) \r\nLanguage : English \r\nDefault : Yes \r\nForced : No \r\n\r\nText #1 \r\nID : 3 \r\nFormat : UTF-8 \r\nCodec ID : S_TEXT/UTF8 \r\nCodec ID/Info : UTF-8 Plain Text \r\nDuration : 26mn 43s \r\nBit rate : 103 bps \r\nCount of elements : 742 \r\nStream size : 20.3 KiB (0%) \r\nLanguage : English \r\nDefault : Yes \r\nForced : No \r\n\r\nText #2 \r\nID : 4 \r\nFormat : UTF-8 \r\nCodec ID : S_TEXT/UTF8 \r\nCodec ID/Info : UTF-8 Plain Text \r\nDuration : 26mn 35s \r\nBit rate : 90 bps \r\nCount of elements : 538 \r\nStream size : 17.6 KiB (0%) \r\nLanguage : French \r\nDefault : No \r\nForced : No \r\n\r\nText #3 \r\nID : 5 \r\nFormat : UTF-8 \r\nCodec ID : S_TEXT/UTF8 \r\nCodec ID/Info : UTF-8 Plain Text \r\nDuration : 26mn 35s \r\nBit rate : 94 bps \r\nCount of elements : 531 \r\nStream size : 18.4 KiB (0%) \r\nLanguage : German \r\nDefault : No \r\nForced : No \r\n\r\nText #4 \r\nID : 6 \r\nFormat : UTF-8 \r\nCodec ID : S_TEXT/UTF8 \r\nCodec ID/Info : UTF-8 Plain Text \r\nDuration : 26mn 35s \r\nBit rate : 89 bps \r\nCount of elements : 532 \r\nStream size : 17.4 KiB (0%) \r\nLanguage : Spanish \r\nDefault : No \r\nForced : No","torrent":{"xt":"urn:btih:99e4c72577dc02728dd3533e14abdfe2f033f6da","amp;dn":"Master+Of+None+S01+Season+1+720p+5.1Ch+WebRip+ReEnc-DeeJayAhmed","amp;tr":["udp%3A%2F%2Ftracker.leechers-paradise.org%3A6969","udp%3A%2F%2Fzer0day.ch%3A1337","udp%3A%2F%2Fopen.demonii.com%3A1337","udp%3A%2F%2Ftracker.coppersurfer.tk%3A6969","udp%3A%2F%2Fexodus.desync.com%3A6969"],"infoHash":"99e4c72577dc02728dd3533e14abdfe2f033f6da","infoHashBuffer":{"type":"Buffer","data":[153,228,199,37,119,220,2,114,141,211,83,62,20,171,223,226,240,51,246,218]},"announce":[],"urlList":[]}}